<svg width="70" height="70" viewBox="0 0 70 70" fill="none" xmlns="http://www.w3.org/2000/svg">
<path d="M24.8447 50.15C24.7458 50.1219 24.6446 50.106 24.5428 50.1005C26.0404 48.5265 26.9627 46.4001 26.9627 44.0611V36.8682C26.9627 36.8025 26.9564 36.7383 26.9475 36.6752C26.9565 36.5453 26.9627 36.4146 26.9627 36.2825V31.7317C26.9627 30.9766 26.3506 30.3645 25.5955 30.3645H16.4254C12.5638 30.3645 9.42223 33.5062 9.42223 37.3676V44.0611C9.42223 46.4001 10.3444 48.5265 11.8422 50.1005C11.7404 50.106 11.6393 50.1219 11.5406 50.15C5.07963 50.735 0.00012207 56.1807 0.00012207 62.7913V68.6325C0.00012207 69.3876 0.612212 69.9997 1.36731 69.9997H35.0175C35.7726 69.9997 36.3847 69.3876 36.3847 68.6325V62.7913C36.3847 56.1808 31.3054 50.7352 24.8447 50.15ZM12.1566 39.1014V37.3675C12.1566 35.0138 14.0716 33.0987 16.4254 33.0987H24.2283V36.2824C24.2283 37.8851 22.9244 39.189 21.3217 39.189H12.1566V39.1014ZM12.1566 41.9234H21.3217C22.3843 41.9234 23.3789 41.6278 24.2283 41.1148V44.061C24.2283 47.3891 21.5206 50.0968 18.1925 50.0968C14.8643 50.0968 12.1566 47.3891 12.1566 44.061V41.9234ZM21.1681 52.8314L18.1925 55.8072L15.2168 52.8314H21.1681ZM33.6504 67.2653H2.7345V64.5309H8.40833C9.16342 64.5309 9.77551 63.9188 9.77551 63.1637C9.77551 62.4086 9.16342 61.7966 8.40833 61.7966H2.7844C3.24364 57.1869 6.85944 53.4954 11.4325 52.9141L17.2257 58.7073C17.4821 58.9636 17.8299 59.1077 18.1925 59.1077C18.555 59.1077 18.9029 58.9636 19.1592 58.7073L24.9524 52.9141C29.8502 53.5366 33.6504 57.7271 33.6504 62.7913V67.2653Z" fill="#00730C"/>
<path d="M58.4604 19.7857C58.3616 19.7575 58.2603 19.7416 58.1583 19.7362C59.6559 18.1621 60.5781 16.0357 60.5781 13.6968V6.50371C60.5781 6.43795 60.5718 6.37383 60.5629 6.31066C60.5719 6.18078 60.5781 6.05008 60.5781 5.91801V1.36719C60.5781 0.61209 59.966 0 59.2109 0H50.0407C46.1791 0 43.0376 3.14166 43.0376 7.00314V13.6966C43.0376 16.0356 43.9598 18.162 45.4574 19.736C45.3555 19.7415 45.2541 19.7574 45.1552 19.7855C38.6946 20.3708 33.6155 25.8165 33.6155 32.4268V38.2679C33.6155 39.0229 34.2276 39.635 34.9827 39.635H45.9831C46.7382 39.635 47.3502 39.0229 47.3502 38.2679C47.3502 37.5128 46.7382 36.9007 45.9831 36.9007H36.3499V32.427C36.3499 27.3628 40.15 23.1722 45.0478 22.5497L50.841 28.3429C51.108 28.6099 51.4578 28.7433 51.8077 28.7433C52.1576 28.7433 52.5076 28.6099 52.7744 28.3429L58.5676 22.5497C63.4657 23.1723 67.2658 27.3628 67.2658 32.427V36.9008H57.1941C56.439 36.9008 55.8269 37.5129 55.8269 38.268C55.8269 39.0231 56.439 39.6352 57.1941 39.6352H68.633C69.3881 39.6352 70.0002 39.0231 70.0002 38.268V32.427C70.0002 25.8166 64.9209 20.371 58.4604 19.7857ZM51.808 25.4427L48.8323 22.467H54.7836L51.808 25.4427ZM57.8438 13.6966C57.8438 17.0248 55.1361 19.7325 51.808 19.7325C48.4798 19.7325 45.7721 17.0249 45.7721 13.6968V11.559H54.9372C55.9998 11.559 56.9944 11.2633 57.8438 10.7505V13.6966ZM57.8438 5.91801C57.8438 7.52076 56.5399 8.82465 54.9372 8.82465H45.7721V8.73701V7.00314C45.7721 4.64939 47.6871 2.73438 50.0409 2.73438H57.8438V5.91801Z" fill="#00730C"/>
<path d="M52.775 37.301C52.5207 37.0467 52.168 36.9004 51.8084 36.9004C51.4474 36.9004 51.0961 37.0467 50.8418 37.301C50.5861 37.5553 50.4412 37.908 50.4412 38.2676C50.4412 38.6285 50.5861 38.9799 50.8418 39.2342C51.0961 39.4898 51.4474 39.6348 51.8084 39.6348C52.168 39.6348 52.5207 39.4898 52.775 39.2342C53.0293 38.9799 53.1756 38.6285 53.1756 38.2676C53.1756 37.908 53.0293 37.5553 52.775 37.301Z" fill="#00730C"/>
<path d="M36.5594 19.1309L30.8417 13.4132V6.83594C30.8417 3.0666 27.7751 0 24.0057 0H6.83606C3.06672 0 0.00012207 3.0666 0.00012207 6.83594V18.8672C0.00012207 22.6365 3.06672 25.7031 6.83606 25.7031H24.0056C26.8321 25.7031 29.2969 24.0069 30.331 21.4648H35.5925C36.1454 21.4648 36.644 21.1317 36.8557 20.6209C37.0673 20.1101 36.9503 19.5219 36.5594 19.1309ZM29.3337 18.7305C28.6967 18.7305 28.1441 19.1703 28.0012 19.7911C27.5708 21.662 25.9279 22.9688 24.0056 22.9688H6.83606C4.57446 22.9688 2.7345 21.1288 2.7345 18.8672V6.83594C2.7345 4.57434 4.57446 2.73438 6.83606 2.73438H24.0056C26.2672 2.73438 28.1072 4.57434 28.1072 6.83594V13.9795C28.1072 14.3421 28.2513 14.6899 28.5076 14.9462L32.2919 18.7305H29.3337Z" fill="#00730C"/>
<path d="M63.1641 44.2969H45.9945C43.168 44.2969 40.7032 45.9931 39.6691 48.5352H34.4076C33.8547 48.5352 33.3561 48.8683 33.1445 49.3791C32.9328 49.8899 33.0499 50.4781 33.4407 50.8691L39.1584 56.5868V63.1641C39.1584 66.9334 42.225 70 45.9944 70H63.1641C66.9334 70 70 66.9334 70 63.1641V51.1328C70 47.3635 66.9334 44.2969 63.1641 44.2969ZM67.2656 63.1641C67.2656 65.4257 65.4257 67.2656 63.1641 67.2656H45.9945C43.7329 67.2656 41.893 65.4257 41.893 63.1641V56.0205C41.893 55.6579 41.7489 55.3101 41.4925 55.0538L37.7083 51.2695H40.6665C41.3034 51.2695 41.856 50.8297 41.9989 50.2089C42.4293 48.338 44.0723 47.0312 45.9945 47.0312H63.1641C65.4257 47.0312 67.2656 48.8712 67.2656 51.1328V63.1641Z" fill="#00730C"/>
<path d="M60.7246 53.5103C60.1908 52.9764 59.3251 52.9764 58.7913 53.5103L55.1569 57.1447L53.4669 55.4547C52.933 54.9208 52.0673 54.9208 51.5333 55.4547C50.9994 55.9886 50.9994 56.8543 51.5333 57.3883L54.19 60.045C54.457 60.312 54.8069 60.4455 55.1567 60.4455C55.5066 60.4455 55.8566 60.312 56.1235 60.045L60.7246 55.4439C61.2585 54.91 61.2585 54.0443 60.7246 53.5103Z" fill="#00730C"/>
<path d="M21.6363 9.0599C21.4747 6.71559 19.585 4.82586 17.2407 4.66426C15.9113 4.57279 14.6442 5.02123 13.6735 5.9274C12.7164 6.82086 12.1673 8.08414 12.1673 9.39309C12.1674 10.1483 12.7795 10.7604 13.5346 10.7604C14.2897 10.7604 14.9018 10.1483 14.9018 9.39322C14.9018 8.83117 15.1282 8.31028 15.5395 7.92637C15.95 7.54301 16.488 7.3527 17.0528 7.39235C18.0425 7.46057 18.8403 8.25832 18.9085 9.24803C18.9775 10.2487 18.3216 11.133 17.3488 11.3506C16.284 11.5888 15.5404 12.5145 15.5404 13.6017V14.3311C15.5404 15.0862 16.1525 15.6983 16.9076 15.6983C17.6627 15.6983 18.2748 15.0862 18.2748 14.3311V13.9332C20.3931 13.3013 21.7911 11.3043 21.6363 9.0599Z" fill="#00730C"/>
<path d="M17.8747 18.5966C17.6204 18.3423 17.2677 18.196 16.9081 18.196C16.5471 18.196 16.1958 18.3423 15.9415 18.5966C15.6858 18.8509 15.5409 19.2037 15.5409 19.5632C15.5409 19.9228 15.6858 20.2755 15.9415 20.5298C16.1958 20.7841 16.5471 20.9304 16.9081 20.9304C17.2677 20.9304 17.6204 20.7841 17.8747 20.5298C18.129 20.2755 18.2753 19.9228 18.2753 19.5632C18.2753 19.2037 18.129 18.8509 17.8747 18.5966Z" fill="#00730C"/>
<path d="M14.8437 62.1975C14.5894 61.9432 14.2366 61.7969 13.8771 61.7969C13.5175 61.7969 13.1648 61.9432 12.9105 62.1975C12.6562 62.4518 12.5099 62.8045 12.5099 63.1641C12.5099 63.5236 12.6562 63.8764 12.9105 64.1307C13.1648 64.385 13.5175 64.5312 13.8771 64.5312C14.2366 64.5312 14.5894 64.385 14.8437 64.1307C15.098 63.8764 15.2443 63.5236 15.2443 63.1641C15.2443 62.8045 15.098 62.4518 14.8437 62.1975Z" fill="#00730C"/>
</svg>
