<svg fill='green' width="262" height="80" viewBox="0 0 262 80" fill="none" xmlns="http://www.w3.org/2000/svg">
<path d="M24.8447 55.15C24.7458 55.1219 24.6446 55.106 24.5428 55.1005C26.0404 53.5265 26.9627 51.4001 26.9627 49.0611V41.8682C26.9627 41.8025 26.9564 41.7383 26.9475 41.6752C26.9565 41.5453 26.9627 41.4146 26.9627 41.2825V36.7317C26.9627 35.9766 26.3506 35.3645 25.5955 35.3645H16.4254C12.5638 35.3645 9.42223 38.5062 9.42223 42.3676V49.0611C9.42223 51.4001 10.3444 53.5265 11.8422 55.1005C11.7404 55.106 11.6393 55.1219 11.5406 55.15C5.07963 55.735 0.00012207 61.1807 0.00012207 67.7913V73.6325C0.00012207 74.3876 0.612212 74.9997 1.36731 74.9997H35.0175C35.7726 74.9997 36.3847 74.3876 36.3847 73.6325V67.7913C36.3847 61.1808 31.3054 55.7352 24.8447 55.15ZM12.1566 44.1014V42.3675C12.1566 40.0138 14.0716 38.0987 16.4254 38.0987H24.2283V41.2824C24.2283 42.8851 22.9244 44.189 21.3217 44.189H12.1566V44.1014ZM12.1566 46.9234H21.3217C22.3843 46.9234 23.3789 46.6278 24.2283 46.1148V49.061C24.2283 52.3891 21.5206 55.0968 18.1925 55.0968C14.8643 55.0968 12.1566 52.3891 12.1566 49.061V46.9234ZM21.1681 57.8314L18.1925 60.8072L15.2168 57.8314H21.1681ZM33.6504 72.2653H2.7345V69.5309H8.40833C9.16342 69.5309 9.77551 68.9188 9.77551 68.1637C9.77551 67.4086 9.16342 66.7966 8.40833 66.7966H2.7844C3.24364 62.1869 6.85944 58.4954 11.4325 57.9141L17.2257 63.7073C17.4821 63.9636 17.8299 64.1077 18.1925 64.1077C18.555 64.1077 18.9029 63.9636 19.1592 63.7073L24.9524 57.9141C29.8502 58.5366 33.6504 62.7271 33.6504 67.7913V72.2653Z" fill="white"/>
<path d="M58.4604 24.7857C58.3616 24.7575 58.2603 24.7416 58.1583 24.7362C59.6559 23.1621 60.5781 21.0357 60.5781 18.6968V11.5037C60.5781 11.4379 60.5718 11.3738 60.5629 11.3107C60.5719 11.1808 60.5781 11.0501 60.5781 10.918V6.36719C60.5781 5.61209 59.966 5 59.2109 5H50.0407C46.1791 5 43.0376 8.14166 43.0376 12.0031V18.6966C43.0376 21.0356 43.9598 23.162 45.4574 24.736C45.3555 24.7415 45.2541 24.7574 45.1552 24.7855C38.6946 25.3708 33.6155 30.8165 33.6155 37.4268V43.2679C33.6155 44.0229 34.2276 44.635 34.9827 44.635H45.9831C46.7382 44.635 47.3502 44.0229 47.3502 43.2679C47.3502 42.5128 46.7382 41.9007 45.9831 41.9007H36.3499V37.427C36.3499 32.3628 40.15 28.1722 45.0478 27.5497L50.841 33.3429C51.108 33.6099 51.4578 33.7433 51.8077 33.7433C52.1576 33.7433 52.5076 33.6099 52.7744 33.3429L58.5676 27.5497C63.4657 28.1723 67.2658 32.3628 67.2658 37.427V41.9008H57.1941C56.439 41.9008 55.8269 42.5129 55.8269 43.268C55.8269 44.0231 56.439 44.6352 57.1941 44.6352H68.633C69.3881 44.6352 70.0002 44.0231 70.0002 43.268V37.427C70.0002 30.8166 64.9209 25.371 58.4604 24.7857ZM51.808 30.4427L48.8323 27.467H54.7836L51.808 30.4427ZM57.8438 18.6966C57.8438 22.0248 55.1361 24.7325 51.808 24.7325C48.4798 24.7325 45.7721 22.0249 45.7721 18.6968V16.559H54.9372C55.9998 16.559 56.9944 16.2633 57.8438 15.7505V18.6966ZM57.8438 10.918C57.8438 12.5208 56.5399 13.8246 54.9372 13.8246H45.7721V13.737V12.0031C45.7721 9.64939 47.6871 7.73438 50.0409 7.73438H57.8438V10.918Z" fill="white"/>
<path d="M52.775 42.301C52.5207 42.0467 52.1679 41.9004 51.8083 41.9004C51.4474 41.9004 51.096 42.0467 50.8417 42.301C50.5861 42.5553 50.4412 42.908 50.4412 43.2676C50.4412 43.6285 50.5861 43.9799 50.8417 44.2342C51.096 44.4898 51.4474 44.6348 51.8083 44.6348C52.1679 44.6348 52.5207 44.4898 52.775 44.2342C53.0292 43.9799 53.1755 43.6285 53.1755 43.2676C53.1755 42.908 53.0292 42.5553 52.775 42.301Z" fill="white"/>
<path d="M36.5594 24.1309L30.8417 18.4132V11.8359C30.8417 8.0666 27.7751 5 24.0057 5H6.83606C3.06672 5 0.00012207 8.0666 0.00012207 11.8359V23.8672C0.00012207 27.6365 3.06672 30.7031 6.83606 30.7031H24.0056C26.8321 30.7031 29.2969 29.0069 30.331 26.4648H35.5925C36.1454 26.4648 36.644 26.1317 36.8557 25.6209C37.0673 25.1101 36.9503 24.5219 36.5594 24.1309ZM29.3337 23.7305C28.6967 23.7305 28.1441 24.1703 28.0012 24.7911C27.5708 26.662 25.9279 27.9688 24.0056 27.9688H6.83606C4.57446 27.9688 2.7345 26.1288 2.7345 23.8672V11.8359C2.7345 9.57434 4.57446 7.73438 6.83606 7.73438H24.0056C26.2672 7.73438 28.1072 9.57434 28.1072 11.8359V18.9795C28.1072 19.3421 28.2513 19.6899 28.5076 19.9462L32.2919 23.7305H29.3337Z" fill="white"/>
<path d="M63.1641 49.2969H45.9945C43.168 49.2969 40.7032 50.9931 39.6691 53.5352H34.4076C33.8547 53.5352 33.3561 53.8683 33.1445 54.3791C32.9328 54.8899 33.0499 55.4781 33.4407 55.8691L39.1584 61.5868V68.1641C39.1584 71.9334 42.225 75 45.9944 75H63.1641C66.9334 75 70 71.9334 70 68.1641V56.1328C70 52.3635 66.9334 49.2969 63.1641 49.2969ZM67.2656 68.1641C67.2656 70.4257 65.4257 72.2656 63.1641 72.2656H45.9945C43.7329 72.2656 41.893 70.4257 41.893 68.1641V61.0205C41.893 60.6579 41.7489 60.3101 41.4925 60.0538L37.7083 56.2695H40.6665C41.3034 56.2695 41.856 55.8297 41.9989 55.2089C42.4293 53.338 44.0723 52.0312 45.9945 52.0312H63.1641C65.4257 52.0312 67.2656 53.8712 67.2656 56.1328V68.1641Z" fill="white"/>
<path d="M60.7246 58.5103C60.1908 57.9764 59.3251 57.9764 58.7913 58.5103L55.1569 62.1447L53.4669 60.4547C52.933 59.9208 52.0673 59.9208 51.5333 60.4547C50.9994 60.9886 50.9994 61.8543 51.5333 62.3883L54.19 65.045C54.457 65.312 54.8069 65.4455 55.1567 65.4455C55.5066 65.4455 55.8566 65.312 56.1235 65.045L60.7246 60.4439C61.2585 59.91 61.2585 59.0443 60.7246 58.5103Z" fill="white"/>
<path d="M21.6363 14.0599C21.4747 11.7156 19.585 9.82586 17.2407 9.66426C15.9113 9.57279 14.6442 10.0212 13.6735 10.9274C12.7164 11.8209 12.1673 13.0841 12.1673 14.3931C12.1674 15.1483 12.7795 15.7604 13.5346 15.7604C14.2897 15.7604 14.9018 15.1483 14.9018 14.3932C14.9018 13.8312 15.1282 13.3103 15.5395 12.9264C15.95 12.543 16.488 12.3527 17.0528 12.3923C18.0425 12.4606 18.8403 13.2583 18.9085 14.248C18.9775 15.2487 18.3216 16.133 17.3488 16.3506C16.284 16.5888 15.5404 17.5145 15.5404 18.6017V19.3311C15.5404 20.0862 16.1525 20.6983 16.9076 20.6983C17.6627 20.6983 18.2748 20.0862 18.2748 19.3311V18.9332C20.3931 18.3013 21.7911 16.3043 21.6363 14.0599Z" fill="white"/>
<path d="M17.8747 23.5966C17.6204 23.3423 17.2677 23.196 16.9081 23.196C16.5471 23.196 16.1958 23.3423 15.9415 23.5966C15.6858 23.8509 15.5409 24.2037 15.5409 24.5632C15.5409 24.9228 15.6858 25.2755 15.9415 25.5298C16.1958 25.7841 16.5471 25.9304 16.9081 25.9304C17.2677 25.9304 17.6204 25.7841 17.8747 25.5298C18.129 25.2755 18.2753 24.9228 18.2753 24.5632C18.2753 24.2037 18.129 23.8509 17.8747 23.5966Z" fill="white"/>
<path d="M14.8437 67.1975C14.5894 66.9432 14.2366 66.7969 13.8771 66.7969C13.5175 66.7969 13.1648 66.9432 12.9105 67.1975C12.6562 67.4518 12.5099 67.8045 12.5099 68.1641C12.5099 68.5236 12.6562 68.8764 12.9105 69.1307C13.1648 69.385 13.5175 69.5312 13.8771 69.5312C14.2366 69.5312 14.5894 69.385 14.8437 69.1307C15.098 68.8764 15.2443 68.5236 15.2443 68.1641C15.2443 67.8045 15.098 67.4518 14.8437 67.1975Z" fill="white"/>
<g filter="url(#filter0_d_87_3084)">
<path d="M220.8 66V56.094H233.124V24.504L223.686 30.042L219.084 21.228L236.634 11.01H245.214V56.094H256.758V66H220.8Z" fill="white"/>
</g>
<defs>
<filter id="filter0_d_87_3084" x="216.084" y="11.01" width="45.674" height="62.99" filterUnits="userSpaceOnUse" color-interpolation-filters="sRGB">
<feFlood flood-opacity="0" result="BackgroundImageFix"/>
<feColorMatrix in="SourceAlpha" type="matrix" values="0 0 0 0 0 0 0 0 0 0 0 0 0 0 0 0 0 0 127 0" result="hardAlpha"/>
<feOffset dx="1" dy="4"/>
<feGaussianBlur stdDeviation="2"/>
<feComposite in2="hardAlpha" operator="out"/>
<feColorMatrix type="matrix" values="0 0 0 0 0 0 0 0 0 0 0 0 0 0 0 0 0 0 0.15 0"/>
<feBlend mode="normal" in2="BackgroundImageFix" result="effect1_dropShadow_87_3084"/>
<feBlend mode="normal" in="SourceGraphic" in2="effect1_dropShadow_87_3084" result="shape"/>
</filter>
</defs>
</svg>
