<svg width="176" height="144" viewBox="0 0 176 144" fill="none" xmlns="http://www.w3.org/2000/svg">
<path opacity="0.05" d="M120.884 43.3692C103.923 53.6402 102.021 75.6621 102.697 89.607C115.597 74.5106 131.493 66.5112 140.57 65.0027C125.975 70.6949 114.978 82.0286 105.832 94.5423C102.142 100.981 98.7463 107.281 96.8197 114.235C94.7144 106.092 91.1216 98.4786 87.2456 90.6986C76.359 73.8106 62.9787 58.3134 44.5199 49.8479C56.1533 52.4825 76.1278 64.0322 91.6774 84.5453C93.6148 66.5461 92.8167 37.8929 71.6447 23.326C48.35 7.30019 18.9454 1.83235 4.4236 0.0319003C1.1238 -0.37691 -1.16986 3.22784 0.63288 6.00998C5.38769 13.3486 11.8453 26.4147 12.7978 44.2594C13.746 62.0945 14.8456 95.0499 78.8124 99.9733C88.3139 117.26 92.9931 126.476 94.7228 142.995C94.8541 144.248 96.6333 144.366 96.9347 143.142C98.1122 138.359 101.209 114.302 111.907 102.061C161.383 101.131 163.714 75.8066 165.253 62.1176C166.66 49.5578 171.452 40.2997 175.315 34.657C177.164 31.9567 175.033 28.3228 171.76 28.5821C159.962 29.5173 138.533 32.6852 120.884 43.3692Z" fill="#FBEEE7"/>
</svg>
