<svg width="18" height="19" viewBox="0 0 18 19" fill="none" xmlns="http://www.w3.org/2000/svg">
<path d="M3.62 8.78999C5.06 11.62 7.38 13.93 10.21 15.38L12.41 13.18C12.68 12.91 13.08 12.82 13.43 12.94C14.55 13.31 15.76 13.51 17 13.51C17.55 13.51 18 13.96 18 14.51V18C18 18.55 17.55 19 17 19C7.61 19 0 11.39 0 1.99999C0 1.44999 0.45 0.99999 1 0.99999H4.5C5.05 0.99999 5.5 1.44999 5.5 1.99999C5.5 3.24999 5.7 4.44999 6.07 5.56999C6.18 5.91999 6.1 6.30999 5.82 6.58999L3.62 8.78999ZM17.16 1.68999L16.45 0.98999L10 7.28999V2.99999H9V8.99999H15V7.99999H10.85L17.16 1.68999Z" fill="white"/>
</svg>
