<?xml version="1.0" encoding="iso-8859-1"?>
<!-- Generator: Adobe Illustrator 19.0.0, SVG Export Plug-In . SVG Version: 6.00 Build 0)  -->
<svg fill='green' version="1.1" id="Layer_1" xmlns="http://www.w3.org/2000/svg" xmlns:xlink="http://www.w3.org/1999/xlink" x="0px" y="0px"
	 viewBox="0 0 472.621 472.621" style="enable-background:new 0 0 472.621 472.621;" xml:space="preserve">
<g>
	<g>
		<polygon points="472.618,13.796 458.822,0 305.655,153.177 305.655,40.616 286.142,40.616 286.142,186.485 432.011,186.485 
			432.011,166.973 319.45,166.973 		"/>
	</g>
</g>
<g>
	<g>
		<path d="M364.998,271.192c0,0-17.645,24.076-35.018,41.774l106.006,106.007c18.384-22.909,32.322-44.472,32.322-44.472
			L364.998,271.192z"/>
	</g>
</g>
<g>
	<g>
		<path d="M98.125,4.317c0,0-21.564,13.941-44.474,32.325l106.008,106.008c17.697-17.375,41.778-35.02,41.778-35.02L98.125,4.317z"
			/>
	</g>
</g>
<g>
	<g>
		<path d="M315.379,325.957c-3.894,2.825-7.488,4.811-10.435,5.287c-68.965,11.138-174.698-94.598-163.56-163.561
			c0.475-2.947,2.461-6.541,5.284-10.433L38.657,49.24C18.05,67.416,0.004,87.565,0.003,102.439
			c0,130.879,239.305,370.182,370.183,370.182c14.876,0,35.027-18.046,53.203-38.654L315.379,325.957z"/>
	</g>
</g>
<g>
</g>
<g>
</g>
<g>
</g>
<g>
</g>
<g>
</g>
<g>
</g>
<g>
</g>
<g>
</g>
<g>
</g>
<g>
</g>
<g>
</g>
<g>
</g>
<g>
</g>
<g>
</g>
<g>
</g>
</svg>
